<svg id="Layer_1" data-name="Layer 1" xmlns="http://www.w3.org/2000/svg" viewBox="0 0 664.54 174.8"><defs><style>.cls-1{fill:#6275f6;}.cls-2{fill:#1c1c1c;}.cls-3,.cls-4,.cls-5,.cls-6{fill:none;stroke:#6275f6;}.cls-3,.cls-5,.cls-6{stroke-linecap:round;}.cls-3,.cls-6{stroke-linejoin:round;}.cls-3,.cls-4,.cls-5{stroke-width:11px;}.cls-4,.cls-5{stroke-miterlimit:10;}.cls-6{stroke-width:9px;}</style></defs><title>ITinder logo</title><path class="cls-1" d="M187.6,61.31h21.75v99.9H187.6Z" transform="translate(-21.35 -27.14)"/><path class="cls-1" d="M252.85,80.21h-27.3V61.31h76.2v18.9h-27v81h-21.9Z" transform="translate(-21.35 -27.14)"/><path class="cls-2" d="M313.3,143.06h14.4V102.11H313.3V84h35.55v59.1h12.9v18.15H313.3ZM325,51.71h24.15v19.5H325Z" transform="translate(-21.35 -27.14)"/><path class="cls-2" d="M375.7,84h20.7V97.31q4.8-7.95,11.1-11.7a28.17,28.17,0,0,1,14.7-3.75q12.44,0,19.5,7.42t7.05,20.63v51.3H427.6v-48q0-6-3-9.38a10.32,10.32,0,0,0-8.1-3.37,17.55,17.55,0,0,0-11.4,4.5,28.84,28.84,0,0,0-8.25,11.4v44.85H375.7Z" transform="translate(-21.35 -27.14)"/><path class="cls-2" d="M471.92,153.48q-7.43-10-7.43-27.82,0-21.15,11-32.48t31.42-11.32q2.55,0,7.65.3V51.71h20.85v109.5H514.89l.45-10.05h-.6a27.21,27.21,0,0,1-9.52,9.15,25.82,25.82,0,0,1-12.83,3.15Q479.34,163.46,471.92,153.48Zm34.57-12.6a37.34,37.34,0,0,0,8.1-11.77V101.66a38.1,38.1,0,0,0-9.75-1.35q-9.45,0-14.32,6.15t-4.88,18q0,9.6,3.08,15.07t8.47,5.48Q502,145,506.49,140.88Z" transform="translate(-21.35 -27.14)"/><path class="cls-2" d="M561.77,152.66q-10.72-10.8-10.73-30,0-12.45,4.65-21.68a33.38,33.38,0,0,1,13.13-14.17,38.68,38.68,0,0,1,19.87-5q16.8,0,25.8,10.8t9,31.2q0,3.45-.15,5.1h-51q1.5,7.95,6.9,12.07t14.55,4.13a50,50,0,0,0,11.55-1.43,43.76,43.76,0,0,0,10.5-3.82l3.45,17A56.41,56.41,0,0,1,606,161.73a63.87,63.87,0,0,1-14.78,1.73Q572.49,163.46,561.77,152.66Zm41.47-39.6a15,15,0,0,0-4.5-10.28Q594.69,99,587.94,99a15.1,15.1,0,0,0-10.57,3.75,17.1,17.1,0,0,0-5.18,10.35Z" transform="translate(-21.35 -27.14)"/><path class="cls-2" d="M639.69,84h21.15v12.6H662q4.35-7.65,8.63-11.25a16.06,16.06,0,0,1,10.72-3.6,14.41,14.41,0,0,1,4.5.6l-2.25,22.8a25.52,25.52,0,0,0-6.3-1,13.08,13.08,0,0,0-6.07,1.35,16.16,16.16,0,0,0-4.65,3.6q-2,2.25-5.78,6.9v45.3H639.69Z" transform="translate(-21.35 -27.14)"/><path class="cls-3" d="M101.69,109h4.61c16,0,29-17,29-33V56h-63V32.64c-15,0-28.21,12.19-28.21,27.21v51.46" transform="translate(-21.35 -27.14)"/><circle class="cls-4" cx="52.83" cy="115.29" r="43.31"/><line class="cls-5" x1="25.73" y1="149.07" x2="5.5" y2="169.3"/><path class="cls-1" d="M135.29,60.89v13a14.12,14.12,0,0,1-3.14.35,14.59,14.59,0,0,1-14.6-14.6,12.83,12.83,0,0,1,.1-1.65H132.4A2.89,2.89,0,0,1,135.29,60.89Z" transform="translate(-21.35 -27.14)"/><path class="cls-6" d="M73.09,73.42a7.19,7.19,0,0,0,14.38,0" transform="translate(-21.35 -27.14)"/></svg>